# xmcd
#
# Track frame offsets:
#	150
#	19315
#	41025
#	50147
#	60547
#	71180
#	83295
#	96050
#	108402
#	121807
#
# Disc length: 1774 seconds
#
# Revision: 0
# Processed by: cddbd v1.5.1PL0 Copyright (c) Steve Scherf et al.
# Submitted via: dBpowerAMP V4.0
#
DISCID=8206ec0a
DTITLE=Various Artist - This is Cajun Country
DYEAR=1997
DGENRE=Country
TTITLE0=Tear-stained Letter - Jo-El Sonnier
TTITLE1=Big Mamou - Hank Williams, Jr.
TTITLE2=Colinda - Fiddlin' Frenchie Burke
TTITLE3=Alligator Man - Jimmy Newman
TTITLE4=Louisiana Saturday Night - Don Williams
TTITLE5=Louisiana Man - Doug Kershaw
TTITLE6=Diggy Liggy Lo - Mickey Gilley
TTITLE7=Jambalaya (On The Bayou) - Brenda Lee
TTITLE8=Jole Blon - Johnny Paycheck
TTITLE9=Sugar Bee - Cleveland Crochet
EXTD=
EXTT0=
EXTT1=
EXTT2=
EXTT3=
EXTT4=
EXTT5=
EXTT6=
EXTT7=
EXTT8=
EXTT9=
PLAYORDER=
